<?xml version="1.0" standalone="no"?>
<!DOCTYPE svg PUBLIC "-//W3C//DTD SVG 20010904//EN"
 "http://www.w3.org/TR/2001/REC-SVG-20010904/DTD/svg10.dtd">
<svg version="1.0" xmlns="http://www.w3.org/2000/svg"
 width="796.000000pt" height="796.000000pt" viewBox="0 0 796.000000 796.000000"
 preserveAspectRatio="xMidYMid meet">
<metadata>
Created by potrace 1.14, written by Peter Selinger 2001-2017
</metadata>
<g transform="translate(0.000000,796.000000) scale(0.100000,-0.100000)"
fill="#000000" stroke="none">
<path d="M4988 7954 c-2 -2 -33 -6 -69 -10 -35 -3 -71 -7 -79 -9 -8 -1 -37 -5
-65 -10 -27 -4 -59 -9 -70 -12 -11 -2 -31 -6 -45 -9 -14 -3 -33 -7 -42 -10 -9
-3 -27 -7 -40 -9 -95 -19 -338 -105 -475 -170 -220 -104 -432 -242 -607 -395
-45 -40 -228 -222 -261 -261 -58 -67 -111 -134 -135 -169 -13 -19 -27 -37 -30
-40 -21 -16 -203 -320 -192 -320 4 0 2 -4 -4 -8 -9 -7 -24 -36 -79 -157 -42
-92 -114 -293 -131 -364 -2 -9 -12 -50 -22 -91 -11 -41 -23 -95 -28 -120 -4
-25 -8 -47 -9 -50 -1 -5 -10 -66 -21 -140 -12 -84 -15 -135 -18 -301 -2 -97
-6 -181 -10 -188 -4 -6 -4 -11 1 -11 10 0 10 -211 -1 -228 -4 -7 -4 -12 1 -12
10 0 10 -211 -1 -228 -4 -7 -4 -12 1 -12 10 0 10 -211 -1 -228 -4 -7 -4 -12 1
-12 10 0 10 -211 -1 -228 -4 -7 -4 -12 1 -12 6 0 9 -161 4 -202 -1 -5 -349 -8
-774 -8 l-773 0 -17 -72 c-20 -85 -25 -110 -33 -158 -20 -128 -23 -153 -22
-159 0 -3 -1 -8 -2 -11 -5 -10 -8 -425 -3 -433 3 -5 7 -34 9 -65 2 -31 6 -68
9 -82 3 -14 10 -52 15 -85 5 -33 18 -91 27 -130 l18 -70 773 0 c424 0 772 -2
773 -5 6 -29 2 -370 -4 -370 -5 0 -5 -6 0 -12 10 -17 10 -308 0 -308 -5 0 -5
-6 0 -12 10 -17 10 -308 0 -308 -5 0 -5 -6 0 -12 10 -18 10 -308 -1 -308 -5 0
-4 -6 1 -12 5 -7 8 -78 6 -158 -1 -80 -3 -149 -3 -155 0 -45 7 -78 20 -85 8
-4 42 -14 75 -21 33 -7 65 -14 70 -15 6 -1 28 -5 50 -8 23 -4 50 -8 60 -10 48
-9 117 -16 209 -21 54 -3 101 -6 105 -7 3 0 8 0 11 1 3 1 59 3 125 5 124 4
180 10 275 27 30 6 69 12 85 15 17 2 57 11 90 20 33 8 66 16 73 16 9 1 13 21
12 72 0 39 -1 121 -1 181 -1 61 -1 117 0 125 0 8 0 62 0 120 -1 58 -1 111 0
118 2 20 2 36 2 67 -1 17 0 37 0 45 1 8 1 62 0 120 0 58 0 112 0 120 1 8 1 62
0 120 0 58 0 112 0 120 1 8 1 62 0 120 0 58 0 112 0 120 1 8 1 62 0 120 0 58
0 112 0 120 0 8 0 116 0 240 0 124 0 232 1 240 0 8 0 62 -1 120 0 58 0 112 0
120 1 8 1 62 0 120 0 58 0 112 0 120 1 8 1 62 0 120 0 58 0 112 0 120 1 8 1
62 0 120 0 58 0 112 0 120 1 8 1 62 0 120 0 58 0 112 0 120 1 8 1 62 0 120 0
58 0 112 0 120 1 8 1 62 0 120 0 58 0 112 0 120 1 8 1 62 0 120 0 58 0 112 0
120 1 8 0 62 0 120 -3 178 7 339 25 420 3 14 8 36 10 48 34 179 148 419 274
577 72 90 207 219 286 273 263 177 508 252 799 246 55 -2 118 -5 140 -8 87
-11 129 -17 137 -22 5 -3 21 -8 36 -10 86 -15 359 -130 370 -156 2 -5 8 -8 12
-8 5 0 31 -15 57 -32 225 -152 401 -372 514 -643 13 -32 51 -158 54 -182 2
-11 6 -29 9 -40 3 -10 8 -38 11 -63 3 -25 8 -56 11 -70 7 -35 7 -235 0 -290
-10 -70 -18 -123 -22 -142 -2 -10 -6 -28 -9 -40 -6 -30 -56 -181 -64 -193 -3
-5 -6 -12 -6 -15 -3 -19 -49 -110 -56 -110 -5 0 -9 -7 -9 -15 0 -12 -33 -69
-58 -100 -4 -5 -23 -32 -41 -59 -36 -52 -195 -216 -246 -254 -100 -74 -155
-111 -155 -105 0 5 -4 3 -8 -4 -19 -30 -310 -150 -409 -167 -14 -3 -49 -10
-77 -15 -93 -18 -167 -21 -647 -21 -406 -1 -485 -3 -533 -17 -31 -9 -56 -19
-56 -23 0 -4 -11 -11 -24 -14 -53 -13 -143 -130 -166 -214 -12 -46 -16 -649
-5 -707 18 -88 82 -181 159 -230 93 -58 103 -59 646 -59 493 1 578 4 720 24
154 21 141 19 215 35 19 5 42 10 83 19 9 2 43 12 76 21 32 9 65 18 72 19 7 1
17 5 20 9 4 4 13 7 20 7 7 0 25 5 41 11 15 6 28 10 28 9 0 0 34 13 75 30 41
18 80 33 85 34 26 7 131 60 137 70 4 6 8 7 8 3 0 -26 391 224 497 318 6 5 33
28 59 50 122 102 283 275 392 420 20 28 40 52 45 53 4 2 7 8 7 13 0 5 15 31
33 57 42 59 126 204 126 216 -1 5 3 12 8 15 10 7 74 137 105 215 30 76 40 101
38 101 0 0 13 38 30 85 17 47 31 86 30 88 0 1 0 3 1 5 1 3 4 15 33 142 13 61
27 128 31 150 3 23 7 51 10 63 28 146 25 612 -5 757 -4 22 -8 47 -8 55 0 8 -3
26 -6 40 -6 24 -12 54 -21 95 -2 11 -13 54 -25 95 -11 41 -23 85 -25 96 -5 20
-62 181 -89 249 -10 25 -32 73 -66 145 -31 66 -106 196 -175 300 -203 308
-486 585 -805 785 -30 19 -66 40 -80 47 -14 7 -27 15 -30 18 -7 8 -199 101
-202 99 -2 -1 -22 8 -45 19 -36 19 -148 65 -163 67 -3 0 -39 11 -80 24 -142
43 -165 49 -240 64 -84 17 -124 24 -190 33 -25 3 -56 8 -70 11 -29 6 -487 13
-492 7z"/>
<path d="M685 3928 c-75 -10 -99 -15 -102 -18 -2 -1 -6 -3 -10 -5 -20 -5 -51
-18 -80 -32 -17 -8 -33 -14 -35 -12 -2 2 -10 -1 -18 -8 -8 -7 -40 -32 -70 -56
-59 -46 -162 -166 -154 -179 3 -4 1 -8 -3 -8 -7 0 -18 -20 -38 -70 -1 -3 -5
-12 -8 -20 -29 -68 -48 -305 -27 -335 4 -5 10 -26 14 -45 8 -44 57 -149 93
-198 26 -35 105 -116 134 -137 38 -27 99 -65 106 -65 5 0 20 -6 34 -14 23 -12
57 -23 99 -33 16 -3 90 -13 130 -16 27 -2 29 8 16 68 -3 17 -9 45 -12 64 -3
18 -8 43 -10 55 -28 140 -39 276 -36 466 2 222 8 277 48 474 13 66 21 122 19
125 -9 8 -26 8 -90 -1z"/>
<path d="M2565 646 c2 -23 6 -50 9 -61 2 -11 5 -22 5 -25 2 -16 76 -94 399
-424 107 -109 157 -139 225 -135 63 5 98 30 237 173 70 72 176 181 235 241 59
61 114 123 122 139 8 16 18 54 20 84 6 54 5 55 -18 48 -13 -4 -37 -9 -54 -12
-16 -3 -46 -9 -65 -14 -57 -15 -156 -29 -241 -35 -20 -1 -40 -4 -45 -7 -11 -7
-439 -2 -479 6 -16 3 -48 7 -70 10 -56 8 -154 24 -190 31 -16 4 -38 7 -47 8
-10 1 -18 4 -18 7 0 4 -7 7 -15 7 -10 0 -13 -10 -10 -41z"/>
</g>
</svg>
