<?xml version="1.0" encoding="UTF-8" standalone="no"?>
<!DOCTYPE svg PUBLIC "-//W3C//DTD SVG 1.1//EN" "http://www.w3.org/Graphics/SVG/1.1/DTD/svg11.dtd">
<!-- Created with Vectornator (http://vectornator.io/) -->
<svg height="100%" stroke-miterlimit="10" style="fill-rule:nonzero;clip-rule:evenodd;stroke-linecap:round;stroke-linejoin:round;" version="1.1" viewBox="0 0 821.65 224" width="100%" xml:space="preserve" xmlns="http://www.w3.org/2000/svg" xmlns:vectornator="http://vectornator.io" xmlns:xlink="http://www.w3.org/1999/xlink">
<defs/>
<clipPath id="ArtboardFrame">
<rect height="224" width="821.65" x="0" y="0"/>
</clipPath>
<g clip-path="url(#ArtboardFrame)" id="Calque-2" vectornator:layerName="Calque 2">
<g opacity="1" vectornator:layerName="Calque 1">
<path d="M51.56 209.42L51.56 210.42C51.5538 211.473 51.9635 212.487 52.7 213.24L61.94 222.79C62.7044 223.576 63.7539 224.019 64.85 224.019C65.9461 224.019 66.9956 223.576 67.76 222.79L77.05 213.23C77.7811 212.473 78.1898 211.462 78.19 210.41L78.19 209.35C69.4648 211.643 60.2988 211.67 51.56 209.43L51.56 209.42Z" fill="#ffffff" fill-rule="nonzero" opacity="1" stroke="none" vectornator:layerName="path"/>
<path d="M13.85 140.56L13.32 140.56C5.96357 140.56 9.00903e-16 146.524 0 153.88L0 153.88C1.47882e-15 161.236 5.96357 167.2 13.32 167.2L13.85 167.2C11.5898 158.464 11.5898 149.296 13.85 140.56Z" fill="#ffffff" fill-rule="nonzero" opacity="1" stroke="none" vectornator:layerName="path"/>
<path d="M106.61 55.17C75.9 55.59 51.61 81.51 51.61 112.4L51.61 140.66L18.73 140.66C16.3601 149.436 16.3601 158.684 18.73 167.46L51.56 167.46L51.56 204.46C60.283 206.824 69.4814 206.796 78.19 204.38L78.19 112C78.19 96.48 89.89 83.12 105.29 82C113.757 81.4331 122.054 84.5637 128.036 90.5823C134.018 96.6009 137.098 104.917 136.48 113.38C135.4 128.86 122.11 140.63 106.68 140.63L89 140.63C84.7584 140.641 81.3289 144.088 81.34 148.33L81.34 159.72C81.324 161.764 82.1234 163.73 83.561 165.182C84.9987 166.635 86.9562 167.455 89 167.46L106.43 167.46C136.8 167.46 162.31 143.46 163.16 112.92C164.06 81 138.27 54.74 106.61 55.17Z" fill="#ffffff" fill-rule="nonzero" opacity="1" stroke="none" vectornator:layerName="path"/>
<path d="M258 74.61C257.457 79.1256 253.545 82.4725 249 82.31C248.13 82.31 247.23 82.31 246.34 82.31C233.49 82.31 223.34 91.55 219.75 98.08L219.75 158C219.744 162.852 215.812 166.784 210.96 166.79L199.19 166.79C194.338 166.784 190.406 162.852 190.4 158L190.4 66.26C190.4 61.4054 194.335 57.47 199.19 57.47L209.78 57.47C212.112 57.4673 214.349 58.3926 215.998 60.0416C217.647 61.6906 218.573 63.9279 218.57 66.26L218.57 68.51C225.11 60.4 237.05 55.21 250.35 55.21L250.55 55.21C253.052 55.2384 255.423 56.3341 257.066 58.2214C258.708 60.1088 259.467 62.608 259.15 65.09L258 74.61Z" fill="#ffffff" fill-rule="nonzero" opacity="1" stroke="none" vectornator:layerName="path"/>
<path d="M375.42 166.77L364.83 166.77C359.97 166.787 356.017 162.86 356 158L356 158C347.54 165.253 336.722 169.165 325.58 169C309.35 169 294.03 161.79 284.34 150.52C275.237 139.838 270.269 126.244 270.34 112.21C270.34 79.98 294.23 55.21 323.98 55.21C335.607 55.0603 346.923 58.9678 355.98 66.26L355.98 66.26C355.98 61.4054 359.915 57.47 364.77 57.47L375.36 57.47C377.692 57.4673 379.929 58.3926 381.578 60.0416C383.227 61.6906 384.153 63.9279 384.15 66.26L384.15 158C384.139 162.823 380.243 166.737 375.42 166.77ZM354.92 95.77C348.552 87.2349 338.519 82.2199 327.87 82.25C310.74 82.25 299.7 96.45 299.7 112.25C299.7 129.38 312.1 142 328.55 142C339.023 142.08 348.872 137.03 354.92 128.48L354.92 95.77Z" fill="#ffffff" fill-rule="nonzero" opacity="1" stroke="none" vectornator:layerName="path"/>
<path d="M498.71 158.18C499.149 160.584 498.568 163.063 497.105 165.021C495.642 166.979 493.43 168.24 491 168.5C487.87 168.83 484.62 169.02 482 169.02C464.42 169.02 451.58 163.16 444.14 153.25C438.51 145.81 436.03 136.12 436.03 120.57L436.03 82.26L414.41 82.26C409.558 82.2545 405.626 78.3223 405.62 73.47L405.62 66.26C405.62 61.4054 409.555 57.47 414.41 57.47L436.05 57.47L436.05 35.83C436.039 33.4918 436.961 31.2458 438.61 29.5887C440.26 27.9316 442.502 27 444.84 27L456.55 27C461.405 27 465.34 30.9354 465.34 35.79L465.34 57.47L492.61 57.47C494.942 57.4673 497.179 58.3926 498.828 60.0416C500.477 61.6906 501.403 63.9279 501.4 66.26L501.4 73.47C501.4 78.3246 497.465 82.26 492.61 82.26L465.34 82.26L465.34 124C465.34 130.76 466.47 134.82 468.95 137.75C471.88 141.13 476.61 143.16 483.83 143.16C485.13 143.16 486.56 143.09 487.98 142.99C492.451 142.672 496.445 145.77 497.25 150.18L498.71 158.18Z" fill="#ffffff" fill-rule="nonzero" opacity="1" stroke="none" vectornator:layerName="path"/>
<path d="M544.22 0C554.82 0 563.38 8.11 563.38 18.71C563.38 29.31 554.82 37.41 544.22 37.41C533.62 37.41 525.07 29.3 525.07 18.71C525.07 8.12 533.63 0 544.22 0ZM550.08 166.77L538.37 166.77C533.515 166.77 529.58 162.835 529.58 157.98L529.58 66.26C529.577 63.9279 530.503 61.6906 532.152 60.0416C533.801 58.3926 536.038 57.4673 538.37 57.47L550.08 57.47C552.412 57.4673 554.649 58.3926 556.298 60.0416C557.947 61.6906 558.873 63.9279 558.87 66.26L558.87 158C558.859 162.847 554.927 166.77 550.08 166.77Z" fill="#ffffff" fill-rule="nonzero" opacity="1" stroke="none" vectornator:layerName="path"/>
<path d="M684.33 138.83C686.354 140.327 687.635 142.624 687.844 145.133C688.053 147.642 687.169 150.119 685.42 151.93C673.7 163.77 659.49 169 642.26 169C608.45 169 583.66 143.76 583.66 112.21C583.66 80.44 609.13 55.21 642.48 55.21C656.913 55.1502 670.87 60.3715 681.72 69.89C683.596 71.5687 684.664 73.9708 684.652 76.4885C684.641 79.0062 683.552 81.3984 681.66 83.06L674.06 89.75C670.865 92.6532 666.02 92.7598 662.7 90C657.126 85.0506 649.935 82.3087 642.48 82.29C625.58 82.29 612.96 95.58 612.96 112.29C612.96 129.42 625.36 142.04 643.16 142.04C651.131 141.946 658.766 138.816 664.51 133.29C667.617 130.301 672.427 129.993 675.89 132.56L684.33 138.83Z" fill="#ffffff" fill-rule="nonzero" opacity="1" stroke="none" vectornator:layerName="path"/>
<path d="M763.51 55.21C796.63 55.21 821.65 80.68 821.65 112.21C821.65 143.74 796.63 169 763.51 169C730.39 169 705.36 143.76 705.36 112.21C705.36 80.66 730.38 55.21 763.51 55.21ZM763.51 141.98C780.63 141.98 792.35 128.68 792.35 112.23C792.35 95.78 780.63 82.23 763.51 82.23C746.39 82.23 734.66 95.75 734.66 112.23C734.66 128.71 746.38 142 763.51 142L763.51 141.98Z" fill="#ffffff" fill-rule="nonzero" opacity="1" stroke="none" vectornator:layerName="path"/>
</g>
</g>
</svg>
